<?xml version="1.0" encoding="UTF-8"?>
<svg width="238px" height="243px" viewBox="0 0 238 243" version="1.1" xmlns="http://www.w3.org/2000/svg" xmlns:xlink="http://www.w3.org/1999/xlink">
    <title>Dragon</title>
    <g id="Page-1" stroke="none" stroke-width="1" fill="none" fill-rule="evenodd">
        <g id="Pokemon-Gen9-Type-Icons" transform="translate(-2350.100000, -1780.800000)" fill="#FFFFFF" fill-rule="nonzero">
            <g id="Icons" transform="translate(85.290473, 540.199357)">
                <g id="Dragon" transform="translate(2265.230281, 1240.803805)">
                    <path d="M162.979246,67.3968378 C161.379246,42.4968378 155.379246,20.4968378 145.579246,0.796837834 C144.979246,-0.403162166 143.179246,-0.203162166 142.879246,1.09683783 C138.679246,20.1968378 134.079246,36.5968378 128.879246,49.8968378 C125.379246,49.2968378 121.879246,48.9968378 118.279246,48.9968378 C114.679246,48.9968378 111.079246,49.2968378 107.679246,49.8968378 C102.479246,36.5968378 97.8792461,20.1968378 93.6792461,1.09683783 C93.3792461,-0.203162166 91.5792461,-0.403162166 90.9792461,0.796837834 C81.1792461,20.4968378 75.1792461,42.4968378 73.5792461,67.3968378 C60.4792461,80.1968378 52.1792461,98.4968378 52.1792461,118.796838 C52.1792461,144.196838 65.0792461,166.496838 84.2792461,178.696838 L84.2792461,208.296838 C84.2792461,226.996838 99.5792461,242.196838 118.179246,242.196838 C136.879246,242.196838 152.079246,226.896838 152.079246,208.296838 L152.079246,178.696838 C171.379246,166.496838 184.179246,144.296838 184.179246,118.796838 C184.379246,98.4968378 176.179246,80.1968378 162.979246,67.3968378 Z M96.4792461,159.696838 C88.5792461,158.096838 76.2792461,151.996838 74.1792461,148.996838 C67.5792461,141.896838 63.6792461,126.296838 65.2792461,108.396838 C65.9792461,100.296838 68.8792461,104.396838 70.2792461,106.896838 C80.8792461,126.496838 90.7792461,143.296838 99.1792461,155.296838 C100.679246,157.396838 98.8792461,160.196838 96.4792461,159.696838 Z M162.479246,148.996838 C160.379246,151.996838 148.079246,158.096838 140.179246,159.696838 C137.779246,160.196838 136.079246,157.396838 137.479246,155.296838 C145.879246,143.296838 155.779246,126.496838 166.379246,106.896838 C167.779246,104.396838 170.679246,100.296838 171.379246,108.396838 C172.979246,126.296838 168.979246,141.896838 162.479246,148.996838 Z" id="Shape"></path>
                    <g id="Group" transform="translate(0.000000, 69.453432)">
                        <path d="M180.279246,97.5434056 C182.879246,101.243406 193.179246,116.143406 198.879246,128.543406 C199.279246,129.343406 200.279246,129.643406 201.079246,129.043406 C248.579246,93.4434056 242.379246,37.8434056 218.079246,0.643405598 C217.279246,-0.556594402 215.479246,0.0434055977 215.479246,1.4434056 C215.679246,23.0434056 210.979246,43.7434056 193.779246,57.7434056 C193.479246,57.9434056 193.279246,58.3434056 193.279246,58.6434056 C191.079246,77.7434056 186.279246,88.5434056 180.379246,95.7434056 C179.879246,96.3434056 179.879246,97.0434056 180.279246,97.5434056 Z" id="Path"></path>
                        <path d="M56.3792461,97.5434056 C53.7792461,101.243406 43.4792461,116.143406 37.7792461,128.543406 C37.3792461,129.343406 36.3792461,129.643406 35.5792461,129.043406 C-11.9207539,93.4434056 -5.72075386,37.8434056 18.5792461,0.643405598 C19.3792461,-0.556594402 21.1792461,0.0434055977 21.1792461,1.4434056 C20.9792461,23.0434056 25.6792461,43.7434056 42.8792461,57.7434056 C43.1792461,57.9434056 43.3792461,58.3434056 43.3792461,58.6434056 C45.5792461,77.7434056 50.3792461,88.5434056 56.2792461,95.7434056 C56.6792461,96.3434056 56.7792461,97.0434056 56.3792461,97.5434056 Z" id="Path"></path>
                    </g>
                </g>
            </g>
        </g>
    </g>
</svg>