<?xml version="1.0" encoding="UTF-8"?>
<svg width="200px" height="194px" viewBox="0 0 200 194" version="1.1" xmlns="http://www.w3.org/2000/svg" xmlns:xlink="http://www.w3.org/1999/xlink">
    <title>Fairy</title>
    <g id="Page-1" stroke="none" stroke-width="1" fill="none" fill-rule="evenodd">
        <g id="Pokemon-Gen9-Type-Icons" transform="translate(-2935.100000, -1819.800000)" fill="#FFFFFF" fill-rule="nonzero">
            <g id="Icons" transform="translate(85.290473, 540.199357)">
                <path d="M3044.90953,1287.50064 C3044.20953,1285.40064 3042.50953,1283.80064 3040.30953,1283.20064 C3005.00953,1274.10064 2971.90953,1287.60064 2950.10953,1318.90064 C2928.30953,1287.60064 2895.30953,1274.10064 2859.90953,1283.20064 C2857.70953,1283.80064 2856.00953,1285.40064 2855.30953,1287.50064 C2839.90953,1335.20064 2863.40953,1363.00064 2896.80953,1378.80064 C2883.10953,1389.90064 2880.80953,1403.60064 2883.60953,1418.60064 C2883.80953,1419.40064 2884.30953,1420.10064 2885.10953,1420.50064 C2901.20953,1427.30064 2919.10953,1428.60064 2930.10953,1416.80064 C2923.10953,1444.20064 2918.00953,1465.70064 2921.10953,1472.40064 C2925.70953,1482.30064 2949.40953,1425.60064 2950.10953,1415.60064 C2950.80953,1425.60064 2974.40953,1482.20064 2979.10953,1472.40064 C2982.20953,1465.70064 2977.10953,1444.20064 2970.10953,1416.80064 C2981.10953,1428.50064 2998.90953,1427.30064 3015.10953,1420.50064 C3015.90953,1420.20064 3016.50953,1419.50064 3016.60953,1418.60064 C3019.50953,1403.70064 3017.10953,1389.90064 3003.40953,1378.80064 C3036.80953,1363.00064 3060.30953,1335.20064 3044.90953,1287.50064 Z M2950.20953,1377.00064 C2933.40953,1377.00064 2921.40953,1366.60064 2918.60953,1358.20064 C2944.40953,1358.60064 2950.20953,1334.20064 2950.20953,1334.20064 C2950.20953,1334.20064 2955.90953,1358.60064 2981.80953,1358.20064 C2979.00953,1366.50064 2967.00953,1377.00064 2950.20953,1377.00064 Z" id="Fairy"></path>
            </g>
        </g>
    </g>
</svg>