<?xml version="1.0" encoding="UTF-8"?>
<svg width="194px" height="211px" viewBox="0 0 194 211" version="1.1" xmlns="http://www.w3.org/2000/svg" xmlns:xlink="http://www.w3.org/1999/xlink">
    <title>Flying</title>
    <g id="Page-1" stroke="none" stroke-width="1" fill="none" fill-rule="evenodd">
        <g id="Pokemon-Gen9-Type-Icons" transform="translate(-2372.100000, -570.800000)" fill="#FFFFFF" fill-rule="nonzero">
            <g id="Icons" transform="translate(85.290473, 540.199357)">
                <path d="M2287.20953,236.400643 C2291.40953,177.900643 2305.10953,114.300643 2340.00953,71.9006429 C2340.30953,71.6006429 2340.70953,71.3006429 2341.10953,71.2006429 L2477.10953,31.2006429 C2478.80953,30.7006429 2480.30953,32.3006429 2479.80953,33.9006429 C2467.60953,72.7006429 2430.60953,101.400643 2377.40953,123.400643 L2446.20953,109.700643 C2448.10953,109.300643 2449.50953,111.500643 2448.40953,113.100643 C2429.60953,140.500643 2396.90953,153.600643 2359.20953,161.600643 L2412.80953,158.800643 C2414.70953,158.700643 2415.80953,161.000643 2414.50953,162.400643 C2394.30953,184.200643 2367.30953,190.900643 2330.90953,191.700643 L2295.10953,239.400643 C2292.40953,242.800643 2286.90953,240.700643 2287.20953,236.400643 Z" id="Flying"></path>
            </g>
        </g>
    </g>
</svg>