<?xml version="1.0" encoding="UTF-8"?>
<svg width="241px" height="241px" viewBox="0 0 241 241" version="1.1" xmlns="http://www.w3.org/2000/svg" xmlns:xlink="http://www.w3.org/1999/xlink">
    <title>Normal</title>
    <g id="Page-1" stroke="none" stroke-width="1" fill="none" fill-rule="evenodd">
        <g id="Pokemon-Gen9-Type-Icons" transform="translate(-2915.100000, -563.800000)" fill="#FFFFFF" fill-rule="nonzero">
            <g id="Icons" transform="translate(85.290473, 540.199357)">
                <path d="M3056.60953,88.0006429 C3062.10953,81.2006429 3065.40953,72.6006429 3065.40953,63.2006429 C3065.40953,41.4006429 3047.80953,23.8006429 3026.00953,23.8006429 C3015.70953,23.8006429 3006.30953,27.8006429 2999.30953,34.3006429 C2984.30953,27.6006429 2967.70953,23.8006429 2950.20953,23.8006429 C2932.70953,23.8006429 2916.10953,27.5006429 2901.10953,34.3006429 C2894.10953,27.8006429 2884.70953,23.8006429 2874.40953,23.8006429 C2852.60953,23.8006429 2835.00953,41.4006429 2835.00953,63.2006429 C2835.00953,72.6006429 2838.30953,81.2006429 2843.80953,88.0006429 C2835.00953,104.700643 2830.00953,123.800643 2830.00953,144.100643 C2830.00953,210.500643 2883.90953,264.400643 2950.30953,264.400643 C3016.70953,264.400643 3070.60953,210.500643 3070.60953,144.100643 C3070.50953,123.800643 3065.50953,104.700643 3056.60953,88.0006429 Z M2950.20953,226.400643 C2904.70953,226.400643 2867.80953,189.500643 2867.80953,144.000643 C2867.80953,98.5006429 2904.70953,61.6006429 2950.20953,61.6006429 C2995.70953,61.6006429 3032.60953,98.5006429 3032.60953,144.000643 C3032.60953,189.500643 2995.70953,226.400643 2950.20953,226.400643 Z" id="Normal"></path>
            </g>
        </g>
    </g>
</svg>