<?xml version="1.0" encoding="UTF-8"?>
<svg width="196px" height="221px" viewBox="0 0 196 221" version="1.1" xmlns="http://www.w3.org/2000/svg" xmlns:xlink="http://www.w3.org/1999/xlink">
    <title>Psychic</title>
    <g id="Page-1" stroke="none" stroke-width="1" fill="none" fill-rule="evenodd">
        <g id="Pokemon-Gen9-Type-Icons" transform="translate(-1237.100000, -1178.800000)" fill="#FFFFFF" fill-rule="nonzero">
            <g id="Icons" transform="translate(85.290473, 540.199357)">
                <path d="M1345.40953,788.400643 C1330.30953,761.900643 1330.30953,736.100643 1345.40953,709.600643 C1348.00953,705.000643 1348.10953,699.500643 1345.70953,694.800643 C1343.30953,690.100643 1338.70953,687.000643 1333.50953,686.400643 C1301.30953,682.900643 1278.40953,669.900643 1263.40953,646.400643 C1260.70953,642.100643 1256.10953,639.600643 1251.40953,639.300643 C1251.30953,639.300643 1251.20953,639.300643 1251.00953,639.300643 C1250.70953,639.300643 1250.40953,639.300643 1250.10953,639.300643 C1249.80953,639.300643 1249.50953,639.300643 1249.20953,639.300643 C1249.10953,639.300643 1249.00953,639.300643 1248.80953,639.300643 C1244.10953,639.700643 1239.60953,642.100643 1236.80953,646.400643 C1221.80953,669.800643 1198.90953,682.900643 1166.70953,686.400643 C1161.50953,687.000643 1156.90953,690.100643 1154.50953,694.800643 C1152.10953,699.500643 1152.20953,705.000643 1154.80953,709.600643 C1169.90953,736.100643 1169.90953,761.900643 1154.80953,788.400643 C1152.20953,793.100643 1152.10953,798.700643 1154.60953,803.500643 C1157.10953,808.200643 1161.90953,811.300643 1167.20953,811.700643 C1195.20953,813.700643 1218.20953,827.100643 1237.40953,852.600643 C1240.00953,856.000643 1243.60953,858.000643 1247.50953,858.600643 C1247.50953,858.600643 1247.50953,858.600643 1247.60953,858.600643 C1247.90953,858.600643 1248.20953,858.700643 1248.60953,858.700643 C1248.90953,858.700643 1249.30953,858.700643 1249.60953,858.800643 C1249.70953,858.800643 1249.80953,858.800643 1249.90953,858.800643 C1249.90953,858.800643 1249.90953,858.800643 1250.00953,858.800643 C1250.00953,858.800643 1250.00953,858.800643 1250.10953,858.800643 C1250.20953,858.800643 1250.30953,858.800643 1250.40953,858.800643 C1250.70953,858.800643 1251.10953,858.800643 1251.40953,858.700643 C1251.70953,858.700643 1252.10953,858.600643 1252.40953,858.600643 C1252.40953,858.600643 1252.40953,858.600643 1252.50953,858.600643 C1256.40953,858.000643 1260.10953,856.000643 1262.60953,852.600643 C1281.80953,827.000643 1304.80953,813.700643 1332.80953,811.700643 C1338.10953,811.300643 1342.90953,808.200643 1345.40953,803.500643 C1348.20953,798.700643 1348.10953,793.000643 1345.40953,788.400643 Z M1309.20953,784.000643 C1287.10953,789.600643 1267.40953,801.400643 1250.30953,819.200643 C1233.20953,801.400643 1213.50953,789.600643 1191.40953,784.000643 C1199.80953,760.600643 1199.80953,737.100643 1191.30953,713.800643 C1215.20953,707.900643 1234.90953,696.700643 1250.30953,680.100643 C1265.70953,696.600643 1285.40953,707.900643 1309.30953,713.800643 C1300.70953,737.100643 1300.70953,760.600643 1309.20953,784.000643 Z" id="Psychic"></path>
            </g>
        </g>
    </g>
</svg>