<?xml version="1.0" encoding="UTF-8"?>
<svg width="214px" height="215px" viewBox="0 0 214 215" version="1.1" xmlns="http://www.w3.org/2000/svg" xmlns:xlink="http://www.w3.org/1999/xlink">
    <title>Rock</title>
    <g id="Page-1" stroke="none" stroke-width="1" fill="none" fill-rule="evenodd">
        <g id="Pokemon-Gen9-Type-Icons" transform="translate(-662.100000, -1181.800000)" fill="#FFFFFF" fill-rule="nonzero">
            <g id="Icons" transform="translate(85.290473, 540.199357)">
                <path d="M788.209527,702.700643 L729.909527,644.400643 C728.509527,643.000643 726.709527,642.300643 724.809527,642.300643 L642.409527,642.300643 C640.509527,642.300643 638.709527,643.100643 637.309527,644.400643 L579.009527,702.700643 C577.609527,704.100643 576.909527,705.900643 576.909527,707.800643 L576.909527,790.200643 C576.909527,792.100643 577.709527,793.900643 579.009527,795.300643 L637.309527,853.600643 C638.709527,855.000643 640.509527,855.700643 642.409527,855.700643 L724.809527,855.700643 C726.709527,855.700643 728.509527,854.900643 729.909527,853.600643 L788.209527,795.300643 C789.609527,793.900643 790.309527,792.100643 790.309527,790.200643 L790.309527,707.800643 C790.309527,705.900643 789.509527,704.100643 788.209527,702.700643 Z M719.709527,662.500643 C749.509527,663.000643 766.109527,677.900643 767.509527,709.300643 C767.609527,710.600643 766.009527,711.300643 765.009527,710.400643 L718.609527,665.000643 C717.809527,664.000643 718.409527,662.500643 719.709527,662.500643 Z M670.309527,838.700643 C617.109527,837.100643 592.209527,809.300643 592.009527,758.700643 C592.009527,757.400643 593.609527,756.800643 594.509527,757.700643 L671.409527,836.200643 C672.309527,837.200643 671.609527,838.700643 670.309527,838.700643 Z M696.909527,838.700643 C695.609527,838.700643 694.909527,837.200643 695.809527,836.200643 L772.709527,757.700643 C773.609527,756.800643 775.209527,757.400643 775.209527,758.700643 C775.009527,809.300643 750.109527,837.100643 696.909527,838.700643 Z" id="Rock"></path>
            </g>
        </g>
    </g>
</svg>