<?xml version="1.0" encoding="UTF-8"?>
<svg width="149px" height="245px" viewBox="0 0 149 245" version="1.1" xmlns="http://www.w3.org/2000/svg" xmlns:xlink="http://www.w3.org/1999/xlink">
    <title>Water</title>
    <g id="Page-1" stroke="none" stroke-width="1" fill="none" fill-rule="evenodd">
        <g id="Pokemon-Gen9-Type-Icons" transform="translate(-1261.100000, -553.800000)" fill="#FFFFFF" fill-rule="nonzero">
            <g id="Icons" transform="translate(85.290473, 540.199357)">
                <path d="M1315.50953,151.900643 C1315.50953,151.800643 1315.40953,151.700643 1315.30953,151.600643 C1285.70953,99.9006429 1269.30953,60.1006429 1253.70953,16.1006429 C1252.60953,12.9006429 1248.10953,12.9006429 1246.90953,16.1006429 C1231.30953,60.1006429 1214.90953,99.9006429 1185.30953,151.600643 C1185.20953,151.700643 1185.20953,151.800643 1185.10953,151.900643 C1154.20953,219.400643 1214.00953,259.300643 1250.30953,258.400643 C1286.50953,259.400643 1346.40953,219.400643 1315.50953,151.900643 Z M1305.20953,205.000643 C1294.80953,222.700643 1276.40953,238.500643 1249.90953,240.100643 C1250.20953,240.100643 1249.60953,240.100643 1249.90953,240.100643 C1227.60953,239.400643 1207.70953,226.600643 1196.30953,206.100643 C1194.40953,202.600643 1197.80953,198.600643 1201.60953,200.000643 C1233.00953,211.800643 1269.90953,210.600643 1299.80953,198.800643 C1303.70953,197.300643 1307.30953,201.400643 1305.20953,205.000643 Z" id="Water"></path>
            </g>
        </g>
    </g>
</svg>